<mxfile host="app.diagrams.net" agent="Mozilla/5.0 (X11; CrOS x86_64 14541.0.0) AppleWebKit/537.36 (KHTML, like Gecko) Chrome/127.0.0.0 Safari/537.36" version="24.7.7">
  <diagram id="C5RBs43oDa-KdzZeNtuy" name="Page-1">
    <mxGraphModel dx="1050" dy="557" grid="1" gridSize="10" guides="1" tooltips="1" connect="1" arrows="1" fold="1" page="1" pageScale="1" pageWidth="827" pageHeight="1169" math="0" shadow="0">
      <root>
        <mxCell id="WIyWlLk6GJQsqaUBKTNV-0" />
        <mxCell id="WIyWlLk6GJQsqaUBKTNV-1" parent="WIyWlLk6GJQsqaUBKTNV-0" />
        <mxCell id="SpMIZBKI2rRb91oh2W1q-1" style="edgeStyle=orthogonalEdgeStyle;rounded=0;orthogonalLoop=1;jettySize=auto;html=1;exitX=0.5;exitY=0;exitDx=0;exitDy=0;entryX=0.5;entryY=0;entryDx=0;entryDy=0;" edge="1" parent="WIyWlLk6GJQsqaUBKTNV-1">
          <mxGeometry relative="1" as="geometry">
            <mxPoint x="215" y="80" as="targetPoint" />
            <mxPoint x="215" y="80" as="sourcePoint" />
          </mxGeometry>
        </mxCell>
        <mxCell id="SpMIZBKI2rRb91oh2W1q-5" value="" style="edgeStyle=orthogonalEdgeStyle;rounded=0;orthogonalLoop=1;jettySize=auto;html=1;" edge="1" parent="WIyWlLk6GJQsqaUBKTNV-1" source="SpMIZBKI2rRb91oh2W1q-6">
          <mxGeometry relative="1" as="geometry">
            <mxPoint x="215" y="120" as="sourcePoint" />
            <mxPoint x="215" y="200" as="targetPoint" />
          </mxGeometry>
        </mxCell>
        <mxCell id="SpMIZBKI2rRb91oh2W1q-10" value="" style="edgeStyle=orthogonalEdgeStyle;rounded=0;orthogonalLoop=1;jettySize=auto;html=1;" edge="1" parent="WIyWlLk6GJQsqaUBKTNV-1" source="SpMIZBKI2rRb91oh2W1q-2" target="SpMIZBKI2rRb91oh2W1q-6">
          <mxGeometry relative="1" as="geometry" />
        </mxCell>
        <mxCell id="SpMIZBKI2rRb91oh2W1q-2" value="start" style="ellipse;whiteSpace=wrap;html=1;" vertex="1" parent="WIyWlLk6GJQsqaUBKTNV-1">
          <mxGeometry x="160" width="110" height="50" as="geometry" />
        </mxCell>
        <mxCell id="SpMIZBKI2rRb91oh2W1q-9" value="" style="edgeStyle=orthogonalEdgeStyle;rounded=0;orthogonalLoop=1;jettySize=auto;html=1;" edge="1" parent="WIyWlLk6GJQsqaUBKTNV-1" target="SpMIZBKI2rRb91oh2W1q-6">
          <mxGeometry relative="1" as="geometry">
            <mxPoint x="215" y="120" as="sourcePoint" />
            <mxPoint x="215" y="200" as="targetPoint" />
          </mxGeometry>
        </mxCell>
        <mxCell id="SpMIZBKI2rRb91oh2W1q-6" value="input myAnswer" style="shape=parallelogram;perimeter=parallelogramPerimeter;whiteSpace=wrap;html=1;fixedSize=1;" vertex="1" parent="WIyWlLk6GJQsqaUBKTNV-1">
          <mxGeometry x="155" y="90" width="120" height="60" as="geometry" />
        </mxCell>
        <mxCell id="SpMIZBKI2rRb91oh2W1q-14" value="" style="edgeStyle=orthogonalEdgeStyle;rounded=0;orthogonalLoop=1;jettySize=auto;html=1;" edge="1" parent="WIyWlLk6GJQsqaUBKTNV-1" source="SpMIZBKI2rRb91oh2W1q-12" target="SpMIZBKI2rRb91oh2W1q-13">
          <mxGeometry relative="1" as="geometry" />
        </mxCell>
        <mxCell id="SpMIZBKI2rRb91oh2W1q-12" value="myAnswer=&lt;div&gt;myNumber*2&lt;/div&gt;" style="rounded=1;whiteSpace=wrap;html=1;" vertex="1" parent="WIyWlLk6GJQsqaUBKTNV-1">
          <mxGeometry x="155" y="190" width="120" height="60" as="geometry" />
        </mxCell>
        <mxCell id="SpMIZBKI2rRb91oh2W1q-16" value="" style="edgeStyle=orthogonalEdgeStyle;rounded=0;orthogonalLoop=1;jettySize=auto;html=1;" edge="1" parent="WIyWlLk6GJQsqaUBKTNV-1" source="SpMIZBKI2rRb91oh2W1q-13" target="SpMIZBKI2rRb91oh2W1q-15">
          <mxGeometry relative="1" as="geometry" />
        </mxCell>
        <mxCell id="SpMIZBKI2rRb91oh2W1q-13" value="output myAnswer" style="shape=parallelogram;perimeter=parallelogramPerimeter;whiteSpace=wrap;html=1;fixedSize=1;" vertex="1" parent="WIyWlLk6GJQsqaUBKTNV-1">
          <mxGeometry x="155" y="280" width="120" height="60" as="geometry" />
        </mxCell>
        <mxCell id="SpMIZBKI2rRb91oh2W1q-15" value="stop" style="ellipse;whiteSpace=wrap;html=1;" vertex="1" parent="WIyWlLk6GJQsqaUBKTNV-1">
          <mxGeometry x="165" y="380" width="100" height="50" as="geometry" />
        </mxCell>
      </root>
    </mxGraphModel>
  </diagram>
</mxfile>
